<?xml version="1.0" encoding="utf-8"?>
<!-- Generator: Adobe Illustrator 25.2.3, SVG Export Plug-In . SVG Version: 6.00 Build 0)  -->
<svg version="1.1" id="Layer_1" xmlns="http://www.w3.org/2000/svg" xmlns:xlink="http://www.w3.org/1999/xlink" x="0px" y="0px"
	 viewBox="0 0 2374.97 1080" style="enable-background:new 0 0 2374.97 1080;" xml:space="preserve">
<style type="text/css">
	.st0{fill:#FFFFFF;}
	.st1{fill:#0098CE;}
</style>
<g>
	<g>
		<g>
			<path class="st0" d="M1904.04,581.88c-12.58-21.2-28.22-38.1-46.93-50.64c-18.71-12.57-37.39-21.64-56.1-27.23
				c-18.72-5.59-34.49-8.66-47.34-9.21c-12.27-1.12-27.64-2.11-46.04-2.93c-18.44-0.85-37.41-1.71-56.99-2.52
				c-19.52-0.85-37.96-1.67-55.27-2.52c-17.31-0.81-31.25-1.54-41.85-2.08c-13.98-1.12-29.04-4.63-45.22-10.5
				c-16.23-5.86-30.02-15.33-41.47-28.46c-11.44-13.12-17.17-31.12-17.17-54.01c0-31.29,11.98-56.68,36.02-76.24
				c24-19.52,55-29.31,92.97-29.31h130.67c32.92,0,62.41,6.85,88.37,20.52c25.93,13.7,46.76,32.83,62.37,57.39l50.27-45.22
				c-24.02-29.62-52.75-52.49-86.26-68.7c-33.5-16.19-72.32-24.27-116.42-24.27h-130.67c-39.08,0-73.72,7.12-103.88,21.33
				c-30.12,14.25-53.74,34.08-70.74,59.47c-17.04,25.42-25.56,54.87-25.56,88.37c0,30.16,6.14,55.01,18.44,74.53
				c12.27,19.56,27.5,35.18,45.64,46.93c18.13,11.73,36.56,20.08,55.27,25.12c18.72,5.02,34.22,7.81,46.49,8.39
				c12.27,0.54,27.37,1.4,45.22,2.48c17.87,1.12,36.57,2.11,56.14,2.93c19.53,0.85,37.97,1.67,55.28,2.52
				c17.27,0.85,31.52,1.81,42.7,2.93c15.1,1.12,31.02,4.91,47.74,11.31c16.77,6.41,30.83,17.04,42.29,31.83
				c11.45,14.79,17.18,35.31,17.18,61.55c0,35.75-13.54,64.47-40.62,86.26c-27.1,21.77-62.12,32.68-105.11,32.68h-361.05
				l33.36,61.95h328.51c42.43,0,80.12-7.67,113.07-23c32.95-15.37,58.75-37.01,77.47-64.91c18.71-27.91,28.08-60.01,28.08-96.32
				C1922.89,629.93,1916.58,603.12,1904.04,581.88z"/>
			<path class="st0" d="M211.4,705.65V248.55h-74.53v466.17c0,72.81,59.02,131.83,131.83,131.83h297.4l33.51-62.81H289.48
				C246.36,783.73,211.4,748.77,211.4,705.65z"/>
			<path class="st0" d="M923.27,248.55l-319.09,598h39.78h3.59h34.49l64.18-122.82c20.78-35.28,66.53-46.61,102.92-46.61h234.28
				l40.41-53.1H870.57l0,0c-49.17,0.04-80.3,21.6-94.11,41.95l25.38-48.05l160.79-306.55h14.25l159.96,306.55l31.83,60.29
				l87.93,168.35h82.34l-321.85-598.02H923.27z"/>
		</g>
		<g>
			<path class="st1" d="M2129.45,285.31c3.68-6.37,12.88-6.37,16.55,0l17.14,29.68h32.92l-47.95-83.05
				c-4.62-7.99-16.13-7.99-20.75,0L2079.4,315h32.92L2129.45,285.31z"/>
			<path class="st1" d="M2229.25,368.56c6.37,3.68,6.37,12.88,0,16.55l-29.68,17.14v32.92l83.05-47.95c7.99-4.62,7.99-16.13,0-20.75
				l-83.05-47.95v32.92L2229.25,368.56z"/>
			<path class="st1" d="M2146.64,468.37c-3.68,6.37-12.88,6.37-16.55,0l-17.14-29.68h-32.92l47.95,83.05
				c4.62,7.99,16.13,7.99,20.75,0l47.95-83.05h-32.92L2146.64,468.37z"/>
			<path class="st1" d="M2046.85,385.12c-6.37-3.68-6.37-12.88,0-16.55l29.68-17.14v-32.92l-83.05,47.95
				c-7.99,4.62-7.99,16.13,0,20.75l83.05,47.95v-32.92L2046.85,385.12z"/>
		</g>
	</g>
</g>
</svg>
