<?xml version="1.0" encoding="utf-8"?>
<!-- Generator: Adobe Illustrator 25.2.1, SVG Export Plug-In . SVG Version: 6.00 Build 0)  -->
<svg version="1.1" id="Layer_1" xmlns="http://www.w3.org/2000/svg" xmlns:xlink="http://www.w3.org/1999/xlink" x="0px" y="0px"
	 viewBox="0 0 1920 1080" style="enable-background:new 0 0 1920 1080;" xml:space="preserve">
<style type="text/css">
	.st0{fill:#0098CE;}
</style>
<g>
	<g>
		<path d="M1545.91,552.78c-9.73-16.4-21.83-29.47-36.3-39.17c-14.47-9.72-28.92-16.74-43.39-21.06
			c-14.48-4.32-26.68-6.7-36.62-7.12c-9.49-0.87-21.38-1.63-35.61-2.27c-14.26-0.66-28.94-1.32-44.08-1.95
			c-15.1-0.66-29.36-1.29-42.75-1.95c-13.39-0.63-24.17-1.19-32.37-1.61c-10.81-0.87-22.46-3.58-34.98-8.12
			c-12.55-4.53-23.22-11.86-32.08-22.01c-8.85-10.15-13.28-24.07-13.28-41.78c0-24.2,9.27-43.84,27.86-58.97
			c18.56-15.1,42.54-22.67,71.91-22.67h101.07c25.46,0,48.27,5.3,68.35,15.87c20.06,10.6,36.17,25.39,48.24,44.39l38.88-34.98
			c-18.58-22.91-40.8-40.6-66.72-53.14c-25.91-12.52-55.94-18.77-90.05-18.77h-101.07c-30.23,0-57.02,5.51-80.35,16.5
			c-23.3,11.02-41.57,26.36-54.72,46c-13.18,19.66-19.77,42.44-19.77,68.35c0,23.33,4.75,42.55,14.26,57.65
			c9.49,15.13,21.27,27.21,35.3,36.3c14.02,9.07,28.28,15.53,42.75,19.43c14.48,3.88,26.47,6.04,35.96,6.49
			c9.49,0.42,21.17,1.08,34.98,1.92c13.82,0.87,28.29,1.63,43.42,2.27c15.11,0.66,29.37,1.29,42.76,1.95
			c13.36,0.66,24.38,1.4,33.03,2.27c11.68,0.87,23.99,3.8,36.93,8.75c12.97,4.96,23.85,13.18,32.71,24.62
			c8.86,11.44,13.29,27.31,13.29,47.61c0,27.65-10.47,49.87-31.42,66.72c-20.96,16.84-48.05,25.28-81.3,25.28h-279.27l25.8,47.92
			h254.1c32.82,0,61.97-5.93,87.46-17.79c25.49-11.89,45.44-28.63,59.92-50.21c14.47-21.59,21.72-46.42,21.72-74.5
			C1560.49,589.95,1555.61,569.21,1545.91,552.78z"/>
		<path d="M236.67,648.52V294.95h-57.65v360.58c0,56.32,45.65,101.97,101.97,101.97h230.04l25.92-48.58H297.07
			C263.71,708.91,236.67,681.87,236.67,648.52z"/>
		<path d="M787.29,294.95L540.49,757.5h30.77h2.78h26.68l49.64-95c16.07-27.29,51.46-36.05,79.61-36.05h181.21l31.26-41.07h-195.9h0
			c-38.03,0.03-62.11,16.71-72.79,32.45l19.63-37.17l124.37-237.11h11.02l123.73,237.11l24.62,46.63l68.01,130.22h63.69
			L859.86,294.95H787.29z"/>
	</g>
	<g>
		<path class="st0" d="M1720.26,323.39c2.85-4.93,9.96-4.93,12.8,0l13.26,22.96h25.46l-37.09-64.24c-3.57-6.18-12.48-6.18-16.05,0
			l-37.09,64.24h25.46L1720.26,323.39z"/>
		<path class="st0" d="M1797.46,387.78c4.93,2.85,4.93,9.96,0,12.8l-22.96,13.26v25.46l64.24-37.09c6.18-3.57,6.18-12.48,0-16.05
			l-64.24-37.09v25.46L1797.46,387.78z"/>
		<path class="st0" d="M1733.57,464.98c-2.85,4.93-9.96,4.93-12.8,0l-13.26-22.96h-25.46l37.09,64.24c3.57,6.18,12.48,6.18,16.05,0
			l37.09-64.24h-25.46L1733.57,464.98z"/>
		<path class="st0" d="M1656.37,400.59c-4.93-2.85-4.93-9.96,0-12.8l22.96-13.26v-25.46l-64.24,37.09c-6.18,3.57-6.18,12.48,0,16.05
			l64.24,37.09v-25.46L1656.37,400.59z"/>
	</g>
</g>
</svg>
